<svg width="64" height="64" viewBox="0 0 64 64" fill="none" xmlns="http://www.w3.org/2000/svg">
<path fill-rule="evenodd" clip-rule="evenodd" d="M20.602 40.5695C21.66 41.1297 22.8664 41.3705 24.0663 41.2608C25.2664 41.1511 26.4052 40.696 27.3368 39.9539C28.2685 39.2117 28.9503 38.2164 29.2949 37.0956C29.6395 35.9748 29.6312 34.7796 29.2709 33.6634C28.8143 32.2401 28.6516 30.7435 28.7923 29.2591C28.9329 27.7747 29.374 26.3318 30.0905 25.0133C30.8068 23.6947 31.7844 22.5263 32.967 21.575C34.1497 20.6237 35.5142 19.9084 36.9823 19.4699C38.1209 19.1238 39.1285 18.4586 39.8785 17.558C40.6284 16.6575 41.0871 15.5618 41.1968 14.4088C41.3066 13.2559 41.0625 12.0972 40.4952 11.0786C39.9279 10.06 39.0628 9.22692 38.0088 8.68433C36.9547 8.14173 35.7589 7.91374 34.5717 8.02918C33.3845 8.14454 32.2589 8.59808 31.3367 9.3328C30.4145 10.0674 29.7369 11.0504 29.389 12.158C29.0411 13.2655 29.0386 14.4482 29.3818 15.5571C30.2826 18.4199 29.9779 21.5125 28.5347 24.1579C27.0913 26.8033 24.6268 28.7861 21.6805 29.6724C20.5174 29.9997 19.4823 30.6582 18.7093 31.5628C17.9362 32.4675 17.4608 33.5765 17.3446 34.7462C17.2284 35.916 17.4768 37.0927 18.0576 38.1239C18.6383 39.1551 19.5247 39.9934 20.602 40.5303V40.5695ZM57.7879 47.0842C57.3604 46.4238 56.8014 45.8526 56.1436 45.4041C55.486 44.9557 54.7427 44.639 53.9574 44.4725C50.9529 43.7944 48.3472 41.9898 46.7096 39.4531C45.072 36.9163 44.5357 33.8536 45.2179 30.9344C45.4802 29.806 45.3931 28.6277 44.9675 27.5473C44.5419 26.4668 43.7968 25.5325 42.8259 24.8617C41.8549 24.1908 40.7012 23.8134 39.5099 23.7767C38.3185 23.74 37.1426 24.0457 36.1298 24.6555C35.1169 25.2653 34.3123 26.1518 33.8169 27.2038C33.3216 28.256 33.1576 29.4265 33.3457 30.5687C33.5337 31.7109 34.0653 32.7737 34.8738 33.6237C35.6822 34.4736 36.7314 35.0729 37.8896 35.346C39.388 35.674 40.8049 36.2857 42.0592 37.1461C43.3135 38.0065 44.3804 39.0987 45.1989 40.36C46.0173 41.6214 46.5712 43.027 46.8287 44.4965C47.0864 45.9659 47.0425 47.4703 46.6998 48.9233C46.4968 49.86 46.533 50.8306 46.8052 51.7505C47.0774 52.6705 47.5774 53.5119 48.2615 54.2014C48.9455 54.8909 49.793 55.4077 50.73 55.7065C51.667 56.0054 52.6651 56.0773 53.6373 55.9161C54.6096 55.7548 55.5264 55.3653 56.308 54.7814C57.0896 54.1975 57.712 53.437 58.1213 52.5662C58.5306 51.6953 58.7142 50.7405 58.6561 49.7851C58.598 48.8296 58.3 47.9023 57.7879 47.0842ZM33.8408 40.1485C34.5713 39.8209 35.3617 39.6381 36.1658 39.6107C37.1537 39.5863 38.1326 39.7973 39.0171 40.2249C39.9015 40.6527 40.6644 41.2841 41.2392 42.0641C41.814 42.8442 42.1831 43.749 42.3142 44.6994C42.4452 45.6499 42.3344 46.617 41.9912 47.5162C41.648 48.4155 41.083 49.2195 40.3456 49.8578C39.6081 50.4961 38.7209 50.9494 37.7612 51.178C36.8015 51.4065 35.7987 51.4034 34.8405 51.1689C33.8824 50.9344 32.998 50.4757 32.2648 49.8328C31.1386 48.8181 29.8171 48.0291 28.3761 47.5107C26.9352 46.9924 25.4029 46.7551 23.8673 46.8123C22.3316 46.8696 20.8227 47.2203 19.4269 47.8443C18.0311 48.4684 16.776 49.3535 15.7332 50.4491C15.0478 51.1384 14.1989 51.6543 13.2606 51.9519C12.3224 52.2496 11.3233 52.3198 10.3506 52.1566C9.37797 51.9933 8.4613 51.6016 7.68055 51.0155C6.8998 50.4293 6.27881 49.6666 5.87166 48.794C5.46451 47.9214 5.2837 46.9654 5.34488 46.0093C5.40614 45.0532 5.70752 44.1263 6.22289 43.3092C6.73818 42.4923 7.45168 41.8101 8.30124 41.3223C9.15073 40.8345 10.1104 40.5558 11.0964 40.5107C11.8975 40.4803 12.6967 40.6047 13.4477 40.8767C14.1988 41.1488 14.8866 41.563 15.4712 42.0953C17.7338 44.1273 20.7335 45.2073 23.8144 45.0991C26.8952 44.9909 29.8066 43.7035 31.9119 41.5182C32.4546 40.9416 33.1104 40.476 33.8408 40.1485Z" fill="#D90327"/>
</svg>
